# xmcd
#
# Track frame offsets:
#       150
#       12685
#       27702
#       42227
#       57535
#       73062
#       84975
#       98392
#       117312
#       131062
#       146035
#       164250
#
# Disc length: 2375 seconds
#
# Revision: 2
# Processed by: cddbd v1.4PL0 Copyright (c) Steve Scherf et al.
# Submitted via: CD-DA_X-Tractor v0.21
#
DISCID=ac09450c
DTITLE=Dolly Parton - Greatest Hits
DYEAR=1900
DGENRE=
TTITLE0=9 To 5
TTITLE1=But You Know I Love You
TTITLE2=Heartbreak Express
TTITLE3=Old Flames
TTITLE4=Applejack
TTITLE5=Me And Little Andy
TTITLE6=Here You Come Again
TTITLE7=Islands In The Stream
TTITLE8=Two Doors Down
TTITLE9=It's All Wrong, But It's All Right
TTITLE10=Do I Ever Cross Your Mind
TTITLE11=I Will Always Love You
EXTD=
EXTT0=
EXTT1=
EXTT2=
EXTT3=
EXTT4=
EXTT5=
EXTT6=
EXTT7=
EXTT8=
EXTT9=
EXTT10=
EXTT11=
PLAYORDER=
